<?xml version="1.0" encoding="UTF-8"?>
<svg id="b" data-name="Layer 2" xmlns="http://www.w3.org/2000/svg" viewBox="0 0 175.22 166.07">
  <g id="c" data-name="Layer 1">
    <g>
      <path d="M113.71,81.22l48.57-11.93c7.23-2.07,12.93-5.43,12.93-12.12V10.89c0-6.69-4.82-12.71-12.93-10.37-8.12,2.34-49.86,13.86-49.86,13.86-7.05,1.71-11.05,4.85-12.74,10.17l-21.17,57.97c-1.17,3.19-1.08,6.71,.24,9.84l21.37,50.81c1.85,4.49,6,7,12.3,8.53,0,0,41.74,11.52,49.86,13.86,8.12,2.34,12.93-3.68,12.93-10.37v-45.17c0-6.69-5.7-10.05-12.93-12.12l-49.22-12.08c-.57-.17-1.55-.64-1.55-2.04,0-2,2.16-2.53,2.19-2.54Z" style="fill: #80ac1f;"/>
      <path d="M61.51,81.22l-48.57-11.93c-7.23-2.07-12.93-5.43-12.93-12.12V10.89C0,4.19,4.82-1.82,12.93,.51c8.12,2.34,49.86,13.86,49.86,13.86,7.05,1.71,11.05,4.85,12.74,10.17l21.17,57.97c1.17,3.19,1.08,6.71-.24,9.84l-21.37,50.81c-1.85,4.49-6,7-12.3,8.53,0,0-41.74,11.52-49.86,13.86-8.12,2.34-12.93-3.68-12.93-10.37v-45.17c0-6.69,5.7-10.05,12.93-12.12l49.22-12.08c.57-.17,1.55-.64,1.55-2.04,0-2-2.16-2.53-2.19-2.54Z" style="fill: #d76608;"/>
    </g>
  </g>
</svg>