<?xml version="1.0" encoding="UTF-8"?>
<svg id="Layer_2" data-name="Layer 2" xmlns="http://www.w3.org/2000/svg" viewBox="0 0 265.58 52.38">
  <defs>
    <style>
      .cls-1 {
        fill: #fff;
      }

      .cls-2 {
        fill: #d76608;
      }

      .cls-3 {
        fill: #80ac1f;
      }
    </style>
  </defs>
  <g id="Layer_1-2" data-name="Layer 1">
    <g>
      <path class="cls-1" d="M65.89,19.1c-.09-.09-.14-.21-.14-.36V3.92c0-.15,.05-.28,.14-.37,.09-.1,.21-.15,.36-.15h8.74c.17,0,.29,.04,.38,.14s.14,.22,.14,.38v.34c0,.15-.05,.27-.15,.36-.1,.09-.22,.14-.37,.14h-7.81v6.09h7.36c.17,0,.29,.04,.39,.14,.09,.09,.14,.22,.14,.38v.34c0,.15-.05,.27-.15,.36-.1,.09-.22,.14-.37,.14h-7.36v6.54c0,.15-.05,.27-.15,.36-.1,.09-.22,.14-.37,.14h-.41c-.15,0-.27-.04-.36-.14Z"/>
      <path class="cls-1" d="M77.94,13.22c-.02-.45-.02-1.09-.02-1.9s0-1.45,.02-1.9c.06-2.05,.62-3.61,1.68-4.66,1.06-1.06,2.49-1.58,4.3-1.58s3.24,.53,4.3,1.58c1.06,1.06,1.61,2.61,1.68,4.66,.03,.91,.05,1.54,.05,1.9s-.02,1-.05,1.9c-.11,4.17-2.1,6.25-5.98,6.25s-5.87-2.08-5.98-6.25Zm9.22,3.66c.81-.82,1.24-2.08,1.3-3.77,.03-.91,.05-1.5,.05-1.79s-.02-.88-.05-1.79c-.06-1.69-.5-2.95-1.31-3.77-.81-.82-1.89-1.23-3.24-1.23s-2.42,.41-3.24,1.23c-.81,.82-1.25,2.08-1.31,3.77-.02,.45-.02,1.05-.02,1.79s0,1.34,.02,1.79c.06,1.69,.49,2.95,1.3,3.77,.81,.82,1.89,1.23,3.25,1.23s2.44-.41,3.25-1.23Z"/>
      <path class="cls-1" d="M93.67,19.1c-.09-.09-.14-.21-.14-.36V3.89c0-.15,.05-.27,.14-.36,.09-.09,.21-.14,.36-.14h.43c.15,0,.27,.04,.36,.14s.14,.21,.14,.36v13.99h7.81c.17,0,.29,.05,.38,.14,.09,.09,.14,.22,.14,.38v.34c0,.15-.05,.27-.15,.36-.1,.09-.22,.14-.37,.14h-8.74c-.15,0-.27-.04-.36-.14Z"/>
      <path class="cls-1" d="M106.07,19.1c-.09-.09-.14-.21-.14-.36V3.89c0-.15,.05-.27,.14-.36,.09-.09,.21-.14,.36-.14h.43c.15,0,.27,.04,.36,.14s.14,.21,.14,.36v13.99h7.81c.17,0,.29,.05,.38,.14,.09,.09,.14,.22,.14,.38v.34c0,.15-.05,.27-.15,.36-.1,.09-.22,.14-.37,.14h-8.74c-.15,0-.27-.04-.36-.14Z"/>
      <path class="cls-1" d="M117.48,13.22c-.02-.45-.02-1.09-.02-1.9s0-1.45,.02-1.9c.06-2.05,.62-3.61,1.68-4.66,1.06-1.06,2.49-1.58,4.3-1.58s3.24,.53,4.3,1.58c1.06,1.06,1.61,2.61,1.68,4.66,.03,.91,.05,1.54,.05,1.9s-.02,1-.05,1.9c-.11,4.17-2.1,6.25-5.98,6.25s-5.87-2.08-5.98-6.25Zm9.22,3.66c.81-.82,1.24-2.08,1.3-3.77,.03-.91,.05-1.5,.05-1.79s-.02-.88-.05-1.79c-.06-1.69-.5-2.95-1.31-3.77-.81-.82-1.89-1.23-3.24-1.23s-2.42,.41-3.24,1.23c-.81,.82-1.25,2.08-1.31,3.77-.02,.45-.02,1.05-.02,1.79s0,1.34,.02,1.79c.06,1.69,.49,2.95,1.3,3.77,.81,.82,1.89,1.23,3.25,1.23s2.44-.41,3.25-1.23Z"/>
      <path class="cls-1" d="M135.19,19.12c-.1-.08-.17-.22-.21-.42l-3.1-14.58-.05-.27c0-.12,.05-.23,.14-.32,.09-.09,.2-.14,.32-.14h.48c.29,0,.45,.11,.5,.34l2.65,12.9,2.81-9.21c.12-.35,.35-.52,.7-.52h.5c.35,0,.58,.17,.7,.52l2.81,9.21,2.65-12.9c.05-.23,.21-.34,.5-.34h.48c.12,0,.23,.04,.32,.14,.09,.09,.14,.2,.14,.32l-.05,.27-3.1,14.58c-.05,.2-.12,.34-.21,.42-.1,.08-.24,.12-.42,.12h-.34c-.35,0-.58-.18-.7-.54l-3.01-9.55-3.01,9.55c-.11,.36-.34,.54-.7,.54h-.34c-.18,0-.32-.04-.42-.12Z"/>
      <path class="cls-1" d="M65.94,46.4c-.15,0-.28-.05-.38-.16-.11-.11-.16-.23-.16-.38v-14.74c0-.17,.05-.3,.16-.41,.11-.11,.23-.16,.38-.16h6.07c1.18,0,2.2,.18,3.08,.55,.88,.37,1.55,.93,2.04,1.67,.48,.75,.72,1.68,.72,2.8s-.24,2.06-.72,2.79c-.48,.73-1.16,1.28-2.04,1.64-.88,.36-1.9,.54-3.08,.54h-3.37v5.3c0,.15-.05,.28-.15,.38s-.23,.16-.4,.16h-2.15Zm2.65-8.35h3.3c.88,0,1.55-.21,2.01-.62s.7-1.03,.7-1.84c0-.75-.22-1.36-.66-1.82-.44-.46-1.12-.69-2.06-.69h-3.3v4.98Z"/>
      <path class="cls-1" d="M80.86,46.4c-.15,0-.28-.05-.38-.16-.11-.11-.16-.23-.16-.38v-14.74c0-.17,.05-.3,.16-.41,.11-.11,.23-.16,.38-.16h5.86c1.83,0,3.27,.42,4.32,1.27,1.06,.85,1.58,2.08,1.58,3.69,0,1.12-.28,2.04-.83,2.78-.55,.74-1.29,1.28-2.21,1.61l3.3,5.77c.05,.09,.07,.17,.07,.25,0,.14-.05,.25-.15,.34-.1,.09-.21,.14-.33,.14h-2.06c-.26,0-.45-.07-.59-.2-.14-.14-.24-.27-.32-.41l-2.92-5.36h-3.15v5.43c0,.15-.05,.28-.15,.38s-.23,.16-.4,.16h-2.06Zm2.6-8.53h3.19c.92,0,1.61-.21,2.06-.62s.68-1,.68-1.75-.22-1.35-.67-1.78c-.45-.43-1.14-.64-2.07-.64h-3.19v4.8Z"/>
      <path class="cls-1" d="M101.59,46.63c-1.34,0-2.5-.22-3.46-.67-.97-.45-1.72-1.13-2.26-2.06-.54-.93-.84-2.09-.88-3.47-.02-.65-.02-1.29-.02-1.92s0-1.28,.02-1.95c.05-1.37,.35-2.52,.91-3.44,.56-.92,1.32-1.61,2.3-2.08,.97-.47,2.11-.7,3.41-.7s2.44,.23,3.42,.7c.98,.47,1.75,1.16,2.31,2.08,.56,.92,.86,2.07,.91,3.44,.03,.66,.05,1.31,.05,1.95s-.02,1.28-.05,1.92c-.05,1.39-.34,2.55-.88,3.47-.54,.93-1.3,1.61-2.27,2.06-.97,.45-2.13,.67-3.47,.67Zm0-2.6c.98,0,1.78-.29,2.4-.87,.62-.58,.95-1.53,1-2.84,.03-.66,.05-1.28,.05-1.84s-.02-1.17-.05-1.82c-.03-.88-.19-1.59-.49-2.14-.29-.55-.69-.95-1.19-1.2-.5-.25-1.07-.37-1.72-.37s-1.2,.12-1.7,.37c-.5,.25-.89,.65-1.19,1.2s-.46,1.26-.49,2.14c-.02,.65-.02,1.26-.02,1.82s0,1.18,.02,1.84c.05,1.31,.38,2.26,1,2.84,.62,.58,1.41,.87,2.38,.87Z"/>
      <path class="cls-1" d="M116.35,46.63c-.81,0-1.59-.1-2.32-.31-.73-.2-1.38-.52-1.96-.94-.57-.42-1.03-.94-1.37-1.56-.34-.62-.52-1.35-.53-2.2,0-.14,.05-.25,.14-.35,.09-.1,.2-.15,.34-.15h2.15c.2,0,.34,.05,.44,.16,.1,.11,.18,.25,.24,.43,.08,.54,.25,.98,.52,1.32,.27,.34,.61,.59,1.03,.75s.88,.24,1.39,.24c.95,0,1.68-.31,2.18-.93,.51-.62,.76-1.48,.76-2.58v-7.29h-7.67c-.17,0-.3-.05-.4-.16-.1-.11-.15-.23-.15-.38v-1.58c0-.15,.05-.28,.15-.38,.1-.11,.23-.16,.4-.16h10.34c.17,0,.3,.05,.41,.16,.11,.11,.16,.24,.16,.41v9.48c0,1.25-.26,2.33-.78,3.24-.52,.91-1.24,1.6-2.17,2.07-.93,.47-2.03,.71-3.29,.71Z"/>
      <path class="cls-1" d="M126.53,46.4c-.15,0-.28-.05-.38-.16-.11-.11-.16-.23-.16-.38v-14.74c0-.17,.05-.3,.16-.41,.11-.11,.23-.16,.38-.16h9.96c.17,0,.3,.05,.41,.16,.11,.11,.16,.24,.16,.41v1.49c0,.15-.05,.28-.16,.38-.11,.11-.24,.16-.41,.16h-7.45v4.01h6.95c.17,0,.3,.05,.41,.15,.11,.1,.16,.23,.16,.4v1.4c0,.17-.05,.3-.16,.4-.11,.1-.24,.15-.41,.15h-6.95v4.14h7.63c.17,0,.3,.05,.41,.16,.11,.11,.16,.24,.16,.41v1.49c0,.15-.05,.28-.16,.38-.11,.11-.24,.16-.41,.16h-10.14Z"/>
      <path class="cls-1" d="M146.04,46.63c-1.4,0-2.59-.25-3.57-.74-.97-.49-1.72-1.19-2.23-2.1-.51-.91-.8-2.01-.86-3.29-.02-.62-.02-1.28-.02-1.99s0-1.39,.02-2.04c.06-1.27,.35-2.36,.87-3.28,.52-.92,1.27-1.63,2.24-2.12,.97-.49,2.15-.74,3.54-.74,1.03,0,1.95,.14,2.76,.41,.81,.27,1.51,.65,2.08,1.12,.57,.47,1.02,1.03,1.34,1.66s.48,1.32,.5,2.06c.01,.14-.03,.25-.12,.34-.1,.09-.22,.14-.35,.14h-2.15c-.17,0-.3-.04-.41-.12-.11-.08-.18-.22-.23-.42-.24-1-.66-1.67-1.25-2.04-.59-.36-1.32-.54-2.2-.54-1.01,0-1.82,.28-2.42,.85-.6,.57-.93,1.5-.97,2.79-.05,1.24-.05,2.51,0,3.8,.05,1.3,.37,2.23,.97,2.8,.6,.57,1.41,.85,2.42,.85,.88,0,1.61-.18,2.21-.55,.6-.37,1.01-1.04,1.23-2.03,.05-.21,.12-.35,.23-.43,.11-.08,.24-.11,.41-.11h2.15c.14,0,.25,.04,.35,.14,.1,.09,.14,.2,.12,.34-.02,.74-.18,1.43-.5,2.06s-.76,1.19-1.34,1.66c-.57,.48-1.27,.85-2.08,1.12-.81,.27-1.74,.41-2.76,.41Z"/>
      <path class="cls-1" d="M159.44,46.4c-.15,0-.28-.05-.38-.16-.11-.11-.16-.23-.16-.38v-12.52h-4.19c-.15,0-.28-.05-.39-.16-.11-.11-.16-.23-.16-.38v-1.68c0-.17,.05-.3,.16-.41,.11-.11,.23-.16,.39-.16h11.54c.17,0,.3,.05,.41,.16,.11,.11,.16,.24,.16,.41v1.68c0,.15-.05,.28-.16,.38-.11,.11-.24,.16-.41,.16h-4.16v12.52c0,.15-.05,.28-.16,.38-.11,.11-.24,.16-.41,.16h-2.08Z"/>
      <path class="cls-1" d="M179.86,46.63c-1.4,0-2.59-.25-3.57-.74-.97-.49-1.72-1.19-2.23-2.1-.51-.91-.8-2.01-.86-3.29-.02-.62-.02-1.28-.02-1.99s0-1.39,.02-2.04c.06-1.27,.35-2.36,.87-3.28,.52-.92,1.27-1.63,2.24-2.12,.97-.49,2.15-.74,3.54-.74,1.03,0,1.95,.14,2.76,.41,.81,.27,1.51,.65,2.08,1.12,.57,.47,1.02,1.03,1.34,1.66s.48,1.32,.5,2.06c.01,.14-.03,.25-.12,.34-.1,.09-.22,.14-.35,.14h-2.15c-.17,0-.3-.04-.41-.12-.11-.08-.18-.22-.23-.42-.24-1-.66-1.67-1.25-2.04-.59-.36-1.32-.54-2.2-.54-1.01,0-1.82,.28-2.42,.85-.6,.57-.93,1.5-.97,2.79-.05,1.24-.05,2.51,0,3.8,.05,1.3,.37,2.23,.97,2.8,.6,.57,1.41,.85,2.42,.85,.88,0,1.61-.18,2.21-.55,.6-.37,1.01-1.04,1.23-2.03,.05-.21,.12-.35,.23-.43,.11-.08,.24-.11,.41-.11h2.15c.14,0,.25,.04,.35,.14,.1,.09,.14,.2,.12,.34-.02,.74-.18,1.43-.5,2.06s-.76,1.19-1.34,1.66c-.57,.48-1.27,.85-2.08,1.12-.81,.27-1.74,.41-2.76,.41Z"/>
      <path class="cls-1" d="M189.78,46.4c-.15,0-.28-.05-.38-.15-.11-.1-.16-.23-.16-.4v-14.74c0-.17,.05-.3,.16-.41,.11-.11,.23-.16,.38-.16h2.06c.17,0,.3,.05,.4,.16s.15,.24,.15,.41v5.84h6.68v-5.84c0-.17,.05-.3,.16-.41,.11-.11,.23-.16,.38-.16h2.04c.17,0,.3,.05,.41,.16,.11,.11,.16,.24,.16,.41v14.74c0,.15-.05,.28-.16,.38-.11,.11-.24,.16-.41,.16h-2.04c-.15,0-.28-.05-.38-.16-.11-.11-.16-.23-.16-.38v-6.07h-6.68v6.07c0,.15-.05,.28-.15,.38s-.23,.16-.4,.16h-2.06Z"/>
      <path class="cls-1" d="M204.76,46.4c-.12,0-.23-.04-.33-.14-.1-.09-.15-.2-.15-.34,0-.06,.01-.13,.05-.2l5.46-14.6c.05-.15,.13-.28,.26-.4,.13-.11,.31-.17,.53-.17h2.47c.23,0,.4,.06,.52,.17,.12,.11,.21,.25,.27,.4l5.46,14.6c.01,.08,.02,.14,.02,.2,0,.14-.05,.25-.14,.34s-.2,.14-.32,.14h-1.97c-.21,0-.37-.05-.46-.15-.1-.1-.16-.19-.19-.28l-1.06-2.76h-6.72l-1.06,2.76c-.03,.09-.09,.18-.19,.28-.1,.1-.25,.15-.46,.15h-1.97Zm4.48-5.79h5.14l-2.58-6.99-2.56,6.99Z"/>
      <path class="cls-1" d="M221.96,46.4c-.15,0-.28-.05-.38-.16-.11-.11-.16-.23-.16-.38v-14.74c0-.17,.05-.3,.16-.41,.11-.11,.23-.16,.38-.16h1.74c.21,0,.37,.05,.46,.15,.1,.1,.16,.17,.19,.21l6.52,10.14v-9.94c0-.17,.05-.3,.15-.41,.1-.11,.23-.16,.4-.16h1.9c.17,0,.3,.05,.41,.16,.11,.11,.16,.24,.16,.41v14.71c0,.17-.05,.3-.16,.41-.11,.11-.23,.16-.38,.16h-1.77c-.21,0-.36-.05-.45-.16s-.16-.17-.2-.2l-6.5-9.91v9.73c0,.15-.05,.28-.16,.38-.11,.11-.24,.16-.41,.16h-1.9Z"/>
      <path class="cls-1" d="M243.58,46.63c-1.39,0-2.57-.24-3.54-.72-.97-.48-1.73-1.18-2.26-2.09-.54-.91-.83-2-.87-3.27-.02-.65-.02-1.35-.02-2.09s0-1.45,.02-2.12c.05-1.25,.34-2.32,.87-3.21,.54-.89,1.3-1.58,2.29-2.06,.99-.48,2.16-.72,3.52-.72,1.1,0,2.07,.15,2.9,.44,.83,.29,1.52,.67,2.07,1.13,.55,.46,.97,.96,1.24,1.48,.28,.53,.43,1.02,.44,1.47,.01,.14-.02,.25-.11,.34-.09,.09-.21,.14-.36,.14h-2.33c-.15,0-.26-.03-.34-.09-.08-.06-.14-.15-.2-.27-.12-.32-.31-.63-.57-.94-.26-.31-.6-.57-1.04-.78-.44-.21-1-.32-1.7-.32-1.03,0-1.84,.27-2.46,.81-.61,.54-.94,1.44-.98,2.69-.05,1.31-.05,2.64,0,3.98,.05,1.28,.38,2.2,1.01,2.76,.63,.56,1.45,.84,2.48,.84,.68,0,1.29-.12,1.82-.36,.54-.24,.96-.62,1.27-1.13,.31-.51,.46-1.17,.46-1.97v-.7h-2.76c-.15,0-.28-.05-.39-.16-.11-.11-.16-.24-.16-.41v-1.2c0-.17,.05-.3,.16-.41,.11-.11,.23-.16,.39-.16h5.41c.17,0,.3,.05,.4,.16,.1,.11,.15,.24,.15,.41v2.38c0,1.27-.28,2.36-.83,3.28-.55,.92-1.34,1.63-2.35,2.13s-2.22,.75-3.61,.75Z"/>
      <path class="cls-1" d="M253.81,46.4c-.15,0-.28-.05-.38-.16-.11-.11-.16-.23-.16-.38v-14.74c0-.17,.05-.3,.16-.41,.11-.11,.23-.16,.38-.16h9.96c.17,0,.3,.05,.41,.16,.11,.11,.16,.24,.16,.41v1.49c0,.15-.05,.28-.16,.38-.11,.11-.24,.16-.41,.16h-7.45v4.01h6.95c.17,0,.3,.05,.41,.15,.11,.1,.16,.23,.16,.4v1.4c0,.17-.05,.3-.16,.4-.11,.1-.24,.15-.41,.15h-6.95v4.14h7.63c.17,0,.3,.05,.41,.16,.11,.11,.16,.24,.16,.41v1.49c0,.15-.05,.28-.16,.38-.11,.11-.24,.16-.41,.16h-10.14Z"/>
    </g>
    <g>
      <path class="cls-3" d="M31.92,25.22l13.64-3.35c2.03-.58,3.63-1.52,3.63-3.4V5.47c0-1.88-1.35-3.57-3.63-2.91-2.28,.66-14,3.89-14,3.89-1.98,.48-3.1,1.36-3.58,2.85l-5.94,16.27c-.33,.9-.3,1.88,.07,2.76l6,14.26c.52,1.26,1.69,1.97,3.45,2.4,0,0,11.72,3.24,14,3.89,2.28,.66,3.63-1.03,3.63-2.91v-12.68c0-1.88-1.6-2.82-3.63-3.4l-13.82-3.39c-.16-.05-.43-.18-.43-.57,0-.56,.61-.71,.62-.71Z"/>
      <path class="cls-2" d="M17.27,25.22l-13.64-3.35c-2.03-.58-3.63-1.52-3.63-3.4V5.47C0,3.59,1.35,1.9,3.63,2.56c2.28,.66,14,3.89,14,3.89,1.98,.48,3.1,1.36,3.58,2.85l5.94,16.27c.33,.9,.3,1.88-.07,2.76l-6,14.26c-.52,1.26-1.69,1.97-3.45,2.4,0,0-11.72,3.24-14,3.89-2.28,.66-3.63-1.03-3.63-2.91v-12.68c0-1.88,1.6-2.82,3.63-3.4l13.82-3.39c.16-.05,.43-.18,.43-.57,0-.56-.61-.71-.62-.71Z"/>
    </g>
  </g>
</svg>