<?xml version="1.0" encoding="UTF-8"?>
<svg id="Layer_2" data-name="Layer 2" xmlns="http://www.w3.org/2000/svg" viewBox="0 0 82.06 82.06">
  <defs>
    <style>
      .cls-1 {
        fill: #fff;
      }

      .cls-2 {
        fill: none;
        stroke: #fff;
        stroke-miterlimit: 10;
        stroke-width: 2px;
      }
    </style>
  </defs>
  <g id="Layer_1-2" data-name="Layer 1">
    <g>
      <circle class="cls-2" cx="41.03" cy="41.03" r="40.03"/>
      <g>
        <path class="cls-1" d="M41.43,24.64c5.45,0,6.1,.02,8.25,.12,1.99,.09,3.07,.42,3.79,.7,.95,.37,1.63,.81,2.35,1.53,.71,.71,1.16,1.39,1.53,2.35,.28,.72,.61,1.8,.7,3.79,.1,2.15,.12,2.8,.12,8.25s-.02,6.1-.12,8.25c-.09,1.99-.42,3.07-.7,3.79-.37,.95-.81,1.63-1.53,2.35-.71,.71-1.39,1.16-2.35,1.53-.72,.28-1.8,.61-3.79,.7-2.15,.1-2.8,.12-8.25,.12s-6.1-.02-8.25-.12c-1.99-.09-3.07-.42-3.79-.7-.95-.37-1.63-.81-2.35-1.53s-1.16-1.39-1.53-2.35c-.28-.72-.61-1.8-.7-3.79-.1-2.15-.12-2.8-.12-8.25s.02-6.1,.12-8.25c.09-1.99,.42-3.07,.7-3.79,.37-.95,.81-1.63,1.53-2.35,.71-.71,1.39-1.16,2.35-1.53,.72-.28,1.8-.61,3.79-.7,2.15-.1,2.8-.12,8.25-.12m0-3.68c-5.54,0-6.24,.02-8.42,.12-2.17,.1-3.66,.44-4.96,.95-1.34,.52-2.48,1.22-3.62,2.35-1.14,1.14-1.83,2.27-2.35,3.62-.5,1.3-.85,2.78-.95,4.96-.1,2.18-.12,2.87-.12,8.42s.02,6.24,.12,8.42c.1,2.17,.44,3.66,.95,4.96,.52,1.34,1.22,2.48,2.35,3.62,1.13,1.14,2.27,1.83,3.62,2.35,1.3,.5,2.78,.85,4.96,.95,2.18,.1,2.87,.12,8.42,.12s6.24-.02,8.42-.12c2.17-.1,3.66-.44,4.96-.95,1.34-.52,2.48-1.22,3.62-2.35,1.14-1.13,1.83-2.27,2.35-3.62,.5-1.3,.85-2.78,.95-4.96,.1-2.18,.12-2.87,.12-8.42s-.02-6.24-.12-8.42c-.1-2.17-.44-3.66-.95-4.96-.52-1.34-1.22-2.48-2.35-3.62-1.13-1.14-2.27-1.83-3.62-2.35-1.3-.5-2.78-.85-4.96-.95-2.18-.1-2.87-.12-8.42-.12h0Z"/>
        <path class="cls-1" d="M41.43,30.89c-5.79,0-10.48,4.69-10.48,10.48s4.69,10.48,10.48,10.48,10.48-4.69,10.48-10.48-4.69-10.48-10.48-10.48Zm0,17.29c-3.76,0-6.8-3.05-6.8-6.8s3.05-6.81,6.8-6.81,6.8,3.05,6.8,6.81-3.05,6.8-6.8,6.8Z"/>
        <path class="cls-1" d="M54.78,30.48c0,1.35-1.1,2.45-2.45,2.45s-2.45-1.1-2.45-2.45,1.1-2.45,2.45-2.45,2.45,1.1,2.45,2.45Z"/>
      </g>
    </g>
  </g>
</svg>