<?xml version="1.0" encoding="UTF-8"?>
<svg id="Layer_2" data-name="Layer 2" xmlns="http://www.w3.org/2000/svg" viewBox="0 0 82.06 82.06">
  <defs>
    <style>
      .cls-1 {
        fill: #e9e9e9;
      }

      .cls-2 {
        fill: none;
        stroke: #fff;
        stroke-miterlimit: 10;
        stroke-width: 2px;
      }
    </style>
  </defs>
  <g id="Layer_1-2" data-name="Layer 1">
    <g>
      <circle class="cls-2" cx="41.03" cy="41.03" r="40.03"/>
      <path class="cls-1" d="M21.23,22.2c.15-.43,.29-.87,.48-1.29,.01-.03,.04-.05,.05-.08,.01-.01,.02-.03,.02-.05,.21-.25,.37-.54,.58-.79,.54-.61,1.19-1.06,1.93-1.41,.01-.02,.03-.04,.05-.05,.03-.02,.06-.04,.1-.06,.02-.01,.05-.02,.07-.03,.04-.02,.08-.03,.12-.05,.03-.01,.06-.02,.09-.03,.29-.08,.58-.13,.87-.18,.09-.02,.17,0,.25,.05,.6-.01,1.19,.06,1.77,.21,.34-.03,.59,.18,.89,.29,.29,.17,.58,.34,.84,.56,.33,.27,.62,.57,.89,.9,.07,.12,.15,.23,.23,.35,.08,.12,.14,.25,.21,.37,.09,.2,.21,.39,.29,.6,.32,.76,.3,1.55,.28,2.35,0,.18-.06,.36-.09,.54-.16,.46-.28,.94-.54,1.37-.05,.08-.11,.16-.16,.24-.02,.03-.03,.06-.05,.08-.83,1.23-1.99,1.95-3.44,2.23-.18,.02-.36,0-.53,.06-.18,.03-.37,.03-.55,0-.57-.08-1.14-.15-1.68-.4-.26-.12-.52-.23-.75-.39-.07-.05-.14-.11-.21-.16-.02-.01-.05-.03-.07-.05-.02-.02-.04-.03-.06-.05,0,0-.02-.02-.03-.03-.02-.02-.04-.04-.06-.05,0,0-.02-.02-.03-.03-.02-.02-.04-.03-.06-.05-.01,0-.02-.02-.04-.02-.05-.03-.11-.06-.16-.1-1.28-1.19-1.83-2.66-1.68-4.39,.01-.16,.02-.34,.15-.47Z"/>
      <path class="cls-1" d="M22.11,32.12c.48,0,.95,0,1.43,0,.05-.05,.11-.07,.17-.08,.57-.04,1.14-.01,1.71-.02,.25,.02,.49,0,.74,0,.12,0,.24,0,.36,0,.04,0,.08,0,.12,0,.21,0,.41-.01,.62,0,.94-.05,1.88,.04,2.81,.09,.17,.01,.29,.1,.4,.22,.03,.04,.05,.08,.04,.12,.06,.23,0,.47,0,.7-.04,1.08,.07,2.15,.07,3.22-.01,7.4,0,14.8,0,22.2,0,.29,.03,.59,.01,.88-.02,.49-.22,.68-.7,.67-2.1-.03-4.19-.01-6.29,0-.48,0-.94-.06-1.42-.09-.13,0-.24-.07-.33-.15-.03-.03-.05-.07-.05-.12,0-.4-.06-.79-.07-1.18,0-.37,0-.75,0-1.13,0-2.9,0-5.81,0-8.71,.01-5.34,0-10.68,0-16.03,0-.23-.05-.49,.23-.62,.05-.01,.09-.01,.13,.01Z"/>
      <path class="cls-1" d="M63.09,45.87c-.02,.5-.02,1,0,1.5,.13,.45,.17,.91,0,1.36-.02,.29-.02,.59,0,.88,0,.76-.01,1.51-.01,2.27,0,1.11,0,2.21,.01,3.32,0,.02,0,.05,0,.07,.07,.09,.06,.18,0,.27v.14c.1,.14,.03,.27,0,.41-.02,.54-.02,1.09,0,1.63,0,.51,0,1.02-.01,1.53,0,.08,0,.16,0,.24-.02,.44-.13,.55-.58,.55-2.08,0-4.17,0-6.25,0-.53,0-1.06,0-1.6,0-.28,0-.3-.23-.35-.42-.06-.25-.02-.51-.02-.77-.01-1.36-.02-2.72,0-4.08,0-.9,.05-1.8,.02-2.71-.01-.3,.1-.6,.02-.91-.01-.06-.01-.13,0-.19,.05-.57,.07-1.15-.02-1.72-.06-.87-.01-1.74-.02-2.6-.01-.34,0-.68,0-1.01,0-.5,.02-1,0-1.5-.01-.03-.02-.07-.03-.11-.07-.87-.22-1.72-.56-2.54-.01-.03-.03-.06-.04-.09-.1-.27-.25-.53-.42-.76-.02-.02-.03-.05-.05-.07-.01-.02-.03-.05-.04-.07,0-.01-.02-.02-.02-.03-.02-.02-.04-.04-.05-.06-.01,0-.02-.02-.03-.03-.02-.02-.04-.04-.06-.06-.01,0-.02-.02-.03-.03-.14-.14-.27-.29-.44-.4-.03-.02-.05-.04-.08-.06-.03-.02-.06-.04-.08-.06-.01-.01-.03-.02-.04-.03-.99-.61-2.08-.66-3.19-.53-.15,.03-.31,0-.46,.06-.86,.18-1.67,.48-2.31,1.12-.02,.02-.04,.04-.07,.06-.02,.02-.05,.04-.07,.06-.01,.01-.02,.02-.03,.03-.02,.02-.04,.05-.06,.07-.01,.01-.02,.02-.03,.04-.02,.03-.04,.05-.06,.08-.73,.92-.99,2.01-1.13,3.15-.05,.44-.04,.88-.1,1.32-.04,.16-.03,.32-.03,.47,0,3.54,0,7.09,0,10.63,0,1.14,.02,2.29-.02,3.43-.02,.09-.06,.17-.12,.24-.09,.08-.19,.12-.3,.13-1.38,.04-2.76,.04-4.14,0-.69-.02-1.39-.08-2.08-.03-.63,.04-1.25,0-1.88-.05-.06-.05-.12-.1-.19-.14-.03-.03-.06-.07-.08-.11-.06-.34-.03-.68-.03-1.02,0-2.89-.02-5.78-.01-8.68,.02-5.74,0-11.48,.01-17.22,0-.12,0-.25,0-.37,0-.04,.01-.08,.02-.12,.06-.13,.16-.23,.28-.3,.05-.02,.11-.03,.17-.04,.18-.01,.35,0,.53-.01,.29,0,.58,0,.87,0,.7-.01,1.4-.01,2.1,0,.1,0,.2,0,.3,0,.09,0,.19,0,.28,0,.05,0,.11,0,.16,0,.05,0,.11,0,.16,0,.07,0,.15,0,.22,0,.18,0,.35,0,.53,0,.54-.01,1.08-.01,1.62,0,.06,0,.12,0,.18,0,.12,.01,.25,0,.37,0,.49,.01,.68,.19,.68,.68,0,.86,0,1.72,0,2.58,0,.08,0,.16,.01,.28,.2-.16,.31-.36,.46-.51,.28-.28,.51-.6,.8-.86,.12-.12,.24-.24,.36-.36,.17-.18,.36-.33,.55-.49,.4-.34,.85-.61,1.31-.88,.28-.13,.54-.28,.82-.4,.14-.05,.27-.11,.4-.16,.26-.08,.52-.18,.78-.24,.03,0,.06-.02,.09-.02,.07-.01,.15-.03,.22-.05,.03,0,.06-.02,.09-.02,.09-.01,.18-.02,.26-.05,.05-.01,.09-.02,.14-.03,.08,0,.16-.03,.24-.06,.07-.02,.15-.02,.22-.03,.64-.11,1.29-.06,1.93-.07,1.83,.07,3.62,.31,5.26,1.2,.03,.01,.06,.03,.09,.05,.04,.02,.09,.05,.13,.08,.37,.23,.75,.45,1.07,.76,.23,.18,.45,.37,.65,.59,.03,.03,.06,.06,.08,.1,.02,.03,.04,.07,.06,.1,.02,.02,.03,.04,.05,.06,.02,.02,.04,.04,.05,.06,0,0,.02,.02,.03,.03,.06,.06,.12,.11,.16,.18,.04,.07,.09,.14,.15,.2,.03,.03,.06,.07,.09,.11,.51,.73,.9,1.52,1.18,2.36,.02,.07,.04,.14,.06,.21,.01,.03,.02,.05,.03,.08,.02,.05,.03,.11,.05,.16,.01,.03,.02,.05,.03,.08,.03,.08,.05,.15,.08,.22,.16,.61,.31,1.22,.41,1.85,.09,.52,.14,1.04,.21,1.56,.06,.69,.07,1.39,.11,2.08,.03,.1,.02,.21,.03,.32,.01,.62,0,1.23-.04,1.85,0,.08-.03,.15-.06,.23Z"/>
    </g>
  </g>
</svg>