<?xml version="1.0" encoding="UTF-8"?>
<svg id="Layer_2" data-name="Layer 2" xmlns="http://www.w3.org/2000/svg" viewBox="0 0 102.18 96.85">
  <defs>
    <style>
      .cls-1 {
        fill: #d76608;
      }

      .cls-2 {
        fill: #80ac1f;
      }
    </style>
  </defs>
  <g id="Layer_1-2" data-name="Layer 1">
    <g>
      <path class="cls-2" d="M66.31,47.37l28.33-6.95c4.22-1.21,7.54-3.16,7.54-7.07V6.35c0-3.9-2.81-7.41-7.54-6.05-4.73,1.36-29.08,8.08-29.08,8.08-4.11,1-6.45,2.83-7.43,5.93l-12.35,33.81c-.68,1.86-.63,3.91,.14,5.74l12.47,29.63c1.08,2.62,3.5,4.08,7.17,4.98,0,0,24.34,6.72,29.08,8.08,4.73,1.36,7.54-2.15,7.54-6.05v-26.35c0-3.9-3.33-5.86-7.54-7.07l-28.71-7.05c-.34-.1-.9-.38-.9-1.19,0-1.17,1.26-1.48,1.28-1.48Z"/>
      <path class="cls-1" d="M35.87,47.37l-28.33-6.95c-4.22-1.21-7.54-3.16-7.54-7.07V6.35C0,2.45,2.81-1.06,7.54,.3c4.73,1.36,29.08,8.08,29.08,8.08,4.11,1,6.45,2.83,7.43,5.93l12.35,33.81c.68,1.86,.63,3.91-.14,5.74l-12.47,29.63c-1.08,2.62-3.5,4.08-7.17,4.98,0,0-24.34,6.72-29.08,8.08-4.73,1.36-7.54-2.15-7.54-6.05v-26.35c0-3.9,3.33-5.86,7.54-7.07l28.71-7.05c.34-.1,.9-.38,.9-1.19,0-1.17-1.26-1.48-1.28-1.48Z"/>
    </g>
  </g>
</svg>