<?xml version="1.0" encoding="UTF-8"?>
<svg id="Layer_2" data-name="Layer 2" xmlns="http://www.w3.org/2000/svg" viewBox="0 0 82.06 82.06">
  <defs>
    <style>
      .cls-1 {
        fill: #fff;
      }

      .cls-2 {
        fill: none;
        stroke: #fff;
        stroke-miterlimit: 10;
        stroke-width: 2px;
      }
    </style>
  </defs>
  <g id="Layer_1-2" data-name="Layer 1">
    <g>
      <circle class="cls-2" cx="41.03" cy="41.03" r="40.03"/>
      <path class="cls-1" d="M62.55,24.5c-.17-.48-.36-.62-.67-.73-.68-.26-1.83,.13-1.83,.13,0,0-40.63,14.6-42.95,16.22-.5,.35-.67,.55-.75,.79-.4,1.15,.85,1.66,.85,1.66l10.47,3.41s.39,.06,.53-.03c2.38-1.51,23.97-15.14,25.22-15.59,.2-.06,.34,0,.3,.14-.5,1.75-19.25,18.42-19.25,18.42,0,0-.07,.09-.12,.19h-.02s-.98,10.37-.98,10.37c0,0-.41,3.18,2.77,0,2.25-2.25,4.42-4.12,5.51-5.04,3.6,2.49,7.48,5.24,9.15,6.67,.84,.72,1.54,.84,2.12,.82,1.59-.06,2.03-1.8,2.03-1.8,0,0,7.4-29.8,7.65-33.79,.02-.39,.06-.64,.06-.91,0-.37-.03-.75-.09-.92Z"/>
    </g>
  </g>
</svg>