<?xml version="1.0" encoding="UTF-8"?>
<svg id="Layer_2" data-name="Layer 2" xmlns="http://www.w3.org/2000/svg" viewBox="0 0 82.06 82.06">
  <defs>
    <style>
      .cls-1 {
        fill: #fff;
      }

      .cls-2 {
        fill: none;
        stroke: #fff;
        stroke-miterlimit: 10;
        stroke-width: 2px;
      }
    </style>
  </defs>
  <g id="Layer_1-2" data-name="Layer 1">
    <g>
      <circle class="cls-2" cx="41.03" cy="41.03" r="40.03"/>
      <path class="cls-1" d="M66.47,29.7c-.59-2.22-2.34-3.97-4.56-4.56-4.02-1.08-20.15-1.08-20.15-1.08,0,0-16.12,0-20.15,1.08-2.22,.59-3.97,2.34-4.56,4.56-1.08,4.02-1.08,12.41-1.08,12.41,0,0,0,8.39,1.08,12.41,.59,2.22,2.34,3.97,4.56,4.56,4.02,1.08,20.15,1.08,20.15,1.08,0,0,16.12,0,20.15-1.08,2.22-.59,3.97-2.34,4.56-4.56,1.08-4.02,1.08-12.41,1.08-12.41,0,0,0-8.39-1.08-12.41Zm-29.86,20.15v-15.47l13.4,7.73-13.4,7.73Z"/>
    </g>
  </g>
</svg>