<?xml version="1.0" encoding="UTF-8"?><svg id="Layer_2" xmlns="http://www.w3.org/2000/svg" viewBox="0 0 122.37 150"><defs><style>.cls-1{fill:#fff;}.cls-2{fill:#e55e00;}.cls-3{fill:#72ae00;}.cls-4{letter-spacing:-.02em;}.cls-5{fill:#e44100;}.cls-6,.cls-7{fill:#50281c;}.cls-7{font-family:NHaasGroteskDSPro-65Md, 'Neue Haas Grotesk Display Pro';font-size:22.59px;font-weight:500;}</style></defs><g id="Layer_1-2"><g><path class="cls-2" d="M61.19,150C27.45,150,0,122.55,0,88.81,0,63.35,16.03,40.3,39.88,31.44l1.18,3.18C18.53,42.98,3.39,64.76,3.39,88.81c0,31.87,25.93,57.8,57.8,57.8s57.8-25.93,57.8-57.8S93.06,31.01,61.19,31.01v-3.39c33.74,0,61.19,27.45,61.19,61.19s-27.45,61.19-61.19,61.19Z"/><polygon class="cls-2" points="33.08 56.79 29.94 55.51 38.83 33.8 11.12 34.31 11.05 30.92 43.91 30.31 33.08 56.79"/><text class="cls-7" transform="translate(38.36 19.37)"><tspan x="0" y="0">36</tspan><tspan class="cls-4" x="26.23" y="0">0</tspan><tspan x="40.06" y="0">°</tspan></text><g><g><circle class="cls-1" cx="61.51" cy="71.36" r="18.4" transform="translate(-18.04 20.89) rotate(-16.85)"/><g><path class="cls-3" d="M68.83,94.85c1.2-.17,1.8-.64,2.13-2.05,.32-1.41,1.05-3.97,4.06-6.53,0,0-.06,.02-.18,.06,2.14-1.94,3.9-4.37,5.08-7.22,4.22-10.23-.66-21.94-10.89-26.15-10.23-4.22-21.94,.66-26.15,10.89-3.36,8.14-.95,17.22,5.34,22.72,3.44,3.01,3.69,5.01,4.03,6.41,.34,1.4,.95,1.86,2.15,2.02l7.07-4.88,7.37,4.73Zm-22.65-29.64c3.46-8.4,13.08-12.4,21.48-8.94,8.4,3.46,12.4,13.08,8.94,21.48-3.46,8.4-13.08,12.4-21.48,8.94-8.4-3.46-12.4-13.08-8.94-21.48Z"/><path class="cls-6" d="M71.52,95.26c-2.26,1.64-7.33,2.62-10.34,2.62s-7.43-.98-9.68-2.62c-9.9,3.35-15.37,13.94-15.37,20.54,0,13.84,50.11,13.84,50.11,0,0-7.85-4.82-17.19-14.72-20.54Z"/><polygon class="cls-3" points="59.66 93.34 55.5 114.39 62.02 121.25 68.18 114.39 63.36 93.34 59.66 93.34"/></g></g><path class="cls-5" d="M61.42,83.45c-5.59,0-7.69-3.83-8.02-5.86-.1-.62,.32-1.2,.93-1.3,.61-.1,1.19,.32,1.3,.93,.07,.41,.85,3.97,5.79,3.97s5.81-3.82,5.84-3.98c.11-.61,.69-1.02,1.31-.91,.61,.11,1.02,.69,.91,1.3-.35,2.02-2.48,5.85-8.06,5.85Z"/></g></g></g></svg>