<?xml version="1.0" encoding="UTF-8"?><svg id="Layer_2" xmlns="http://www.w3.org/2000/svg" viewBox="0 0 172.7 150"><defs><style>.cls-1{fill:#e55e00;}.cls-2{fill:#50281c;}</style></defs><g id="Layer_1-2"><g><g><rect class="cls-2" x="8.6" y="71.63" width="155.93" height="6.75"/><polygon class="cls-2" points="10.35 85.35 0 75 10.35 64.65 10.35 85.35"/><polygon class="cls-2" points="162.35 85.35 172.7 75 162.35 64.65 162.35 85.35"/></g><g><rect class="cls-2" x="82.98" y="8.16" width="6.75" height="133.23"/><polygon class="cls-2" points="96.7 139.65 86.35 150 76 139.65 96.7 139.65"/><polygon class="cls-2" points="96.7 10.35 86.35 0 76 10.35 96.7 10.35"/></g><g><path class="cls-1" d="M100.53,67.49c-3,2.18-9.74,3.48-13.73,3.48s-9.87-1.3-12.86-3.48c-13.15,4.45-20.42,18.51-20.42,27.28,0,18.38,66.56,18.38,66.56,0,0-10.42-6.4-22.84-19.55-27.28Z"/><circle class="cls-1" cx="86.8" cy="48.55" r="18.17" transform="translate(25.04 126.5) rotate(-80.83)"/><path class="cls-2" d="M105.87,48.58s2.65,7.89,9.3,7.89c0-3.65-4.25-7.42-9.3-7.89Z"/><path class="cls-2" d="M105.87,48.58s7.6,1.17,9.36-3.19c-3.06-1.21-9.36,3.19-9.36,3.19Z"/><path class="cls-2" d="M67.64,42.5s-1.02,5.21-.11,10.22c14.12,1.82,32.19,.76,38.26-.3,.61-6.68-.91-10.63-.91-10.63,0,0-9.44,1.37-18.29,1.35-8.85-.02-18.95-.64-18.95-.64Z"/></g></g></g></svg>