<?xml version="1.0" encoding="UTF-8"?><svg id="Layer_2" xmlns="http://www.w3.org/2000/svg" viewBox="0 0 182.15 151.16"><defs><style>.cls-1{fill:#fff;}.cls-2{fill:#e55e00;}.cls-3{fill:none;stroke:#e55e00;stroke-miterlimit:10;stroke-width:2.05px;}.cls-4{fill:#72ae00;}.cls-5{fill:#003857;}.cls-6{fill:#50281c;}</style></defs><g id="Layer_1-2"><g><g><g><path class="cls-4" d="M162.94,98.25s-.1,.04-.28,.1c3.39-3.07,6.17-6.92,8.03-11.42,6.67-16.18-1.04-34.71-17.22-41.38-16.18-6.67-34.71,1.04-41.38,17.22-5.31,12.88-1.5,27.25,8.44,35.94,4.77,4.16,13.67,6.88,21.16,6.88,7.09,0,16.5-3.29,21.25-7.33Zm-45.61-33.32c5.48-13.29,20.7-19.62,33.99-14.15,13.29,5.48,19.62,20.7,14.15,33.99-5.48,13.29-20.7,19.62-33.99,14.15-13.29-5.48-19.62-20.7-14.15-33.99Z"/><path class="cls-2" d="M157.43,106.76c-3.57,2.59-11.6,4.14-16.35,4.14s-11.75-1.55-15.32-4.14c-15.66,5.29-24.31,14.26-24.31,24.71,0,21.89,79.27,21.89,79.27,0,0-12.41-7.62-19.42-23.28-24.71Z"/></g><g><path class="cls-4" d="M65.5,98.25s-.1,.04-.28,.1c3.39-3.07,6.17-6.92,8.03-11.42,6.67-16.18-1.04-34.71-17.22-41.38-16.18-6.67-34.71,1.04-41.38,17.22-5.31,12.88-1.5,27.25,8.44,35.94,4.77,4.16,13.67,6.88,21.15,6.88,7.09,0,16.5-3.29,21.25-7.33ZM19.89,64.92c5.48-13.29,20.7-19.62,33.99-14.15,13.29,5.48,19.62,20.7,14.15,33.99-5.48,13.29-20.7,19.62-33.99,14.15-13.29-5.48-19.62-20.7-14.15-33.99Z"/><path class="cls-5" d="M59.99,106.76c-3.57,2.59-11.6,4.14-16.35,4.14s-11.75-1.55-15.32-4.14c-15.66,5.29-24.31,14.26-24.31,24.71,0,21.89,79.27,21.89,79.27,0,0-12.41-7.62-19.42-23.28-24.71Z"/></g><g><circle class="cls-1" cx="92.65" cy="54.9" r="32.31" transform="translate(-13.96 39.64) rotate(-22.5)"/><g><path class="cls-4" d="M105.5,96.15c2.11-.3,3.17-1.13,3.73-3.59,.57-2.47,1.85-6.97,7.12-11.46,0,0-.11,.04-.31,.11,3.77-3.4,6.85-7.68,8.92-12.68,7.4-17.96-1.15-38.53-19.12-45.93-17.96-7.4-38.53,1.15-45.93,19.12-5.9,14.3-1.66,30.25,9.37,39.89,6.05,5.28,6.47,8.81,7.07,11.27,.6,2.46,1.67,3.27,3.78,3.54l12.42-8.57,12.94,8.31Zm-39.78-52.05c6.08-14.75,22.97-21.78,37.73-15.7,14.75,6.08,21.78,22.97,15.7,37.73-6.08,14.75-22.97,21.78-37.73,15.7-14.75-6.08-21.78-22.97-15.7-37.73Z"/><path class="cls-6" d="M110.24,96.86c-3.96,2.88-12.88,4.6-18.15,4.6s-13.05-1.72-17.01-4.6c-17.38,5.88-26.99,24.47-26.99,36.07,0,24.3,88,24.3,88,0,0-13.78-8.46-30.19-25.85-36.07Z"/><polygon class="cls-4" points="89.4 93.5 82.11 130.46 93.55 142.51 104.36 130.46 95.9 93.5 89.4 93.5"/></g></g><path class="cls-5" d="M44.89,85.23s-3.24,6.24-11.32,6.24c-.58-4.39,4.51-9.36,11.32-6.24Z"/><path class="cls-5" d="M44.88,85.23s3.24,6.24,11.32,6.24c.58-4.39-4.51-9.36-11.32-6.24Z"/><path class="cls-2" d="M132.6,84.7s2.87-3.51,4.31-3.51,2.23,1.44,4.78,1.44h-.26c2.55,0,3.35-1.44,4.78-1.44s4.31,3.51,4.31,3.51c0,0-3.85,.6-8.97,.6s-8.95-.6-8.95-.6Z"/><path class="cls-2" d="M132.6,85.74s2.31,4.99,8.74,4.99,9.18-4.99,9.18-4.99c0,0-3.85,.95-8.97,.95s-8.95-.95-8.95-.95Z"/></g><polyline class="cls-3" points="181.67 49.25 91.08 1.16 91.07 1.16 .48 49.25"/></g></g></svg>